<?xml version="1.0" encoding="utf-8"?>
<!-- Generator: Adobe Illustrator 25.3.1, SVG Export Plug-In . SVG Version: 6.00 Build 0)  -->
<svg version="1.1" id="Capa_1" xmlns:svgjs="http://svgjs.com/svgjs"
	 xmlns="http://www.w3.org/2000/svg" xmlns:xlink="http://www.w3.org/1999/xlink" x="0px" y="0px" viewBox="0 0 512 512"
	 style="enable-background:new 0 0 512 512;" xml:space="preserve">
<style type="text/css">
	.st0{fill:#565655;}
	.st1{fill:#05A535;}
	.st2{fill:#80582A;}
	.st3{fill:none;stroke:#FFFFFF;stroke-width:21;stroke-miterlimit:10;}
</style>
<g>
	<path class="st0" d="M45.6,73h422.2c8.9,0,16.1,7.2,16.1,16.1v333.9c0,8.8-7.1,15.9-15.9,15.9H43.9c-8.8,0-15.9-7.1-15.9-15.9V90.6
		C28,80.9,35.9,73,45.6,73z"/>
	<path class="st1" d="M40.7,73h140v366h-136c-9.2,0-16.7-7.5-16.7-16.7V85.7C28,78.7,33.7,73,40.7,73z"/>
	<path class="st2" d="M46.5,73h418c10.8,0,19.5,8.7,19.5,19.5V195H28V91.5C28,81.3,36.3,73,46.5,73z"/>
	<path class="st2" d="M38.7,73h435.8c5.2,0,9.4,4.2,9.4,9.4v2.7H28v-1.4C28,77.8,32.8,73,38.7,73z"/>
</g>
<g>
	<path class="st3" d="M465.2,439H46.8c-10,0-18.2-8.1-18.2-18.2V91.2c0-10,8.1-18.2,18.2-18.2h418.3c10,0,18.2,8.1,18.2,18.2v329.7
		C483.3,430.9,475.2,439,465.2,439z"/>
	<path class="st3" d="M44,73h423.7c8.6,0,15.6,7,15.6,15.6V195H28.7V88.3C28.7,79.9,35.5,73,44,73z"/>
	<path class="st3" d="M28.7,317h454.7v106.4c0,8.6-7,15.6-15.6,15.6H44.3c-8.6,0-15.6-7-15.6-15.6V317z"/>
	<path class="st3" d="M180.7,73v366H45.4c-9.2,0-16.7-7.5-16.7-16.7V91.2c0-10,8.1-18.2,18.2-18.2H180.7z"/>
	<path class="st3" d="M484,92.5v330.6c0,8.8-7.1,15.9-15.9,15.9H332V73h132.5C475.3,73,484,81.7,484,92.5z"/>
</g>
</svg>
